# xmcd CD database file
#
# Track frame offsets:
#	150
#	18998
#	39230
#	51311
#	76945
#	96250
#	112876
#	124588
#	140674
#	152896
#	167081
#	193937
#	209515
#	225058
#	241481
#	257371
#
# Disc length: 3653 seconds
#
# Revision: 0
# Processed by: cddbd v1.5.2PL0 Copyright (c) Steve Scherf et al.
# Submitted via: CDex 1.51
#
DISCID=cc0e4310
DTITLE=Kid Ramos - West Coast House Party
DYEAR=2000
DGENRE=Blues
TTITLE0=Strollin´ With Bone (Pt.1)
TTITLE1=Lizabeth
TTITLE2=Guitar Player
TTITLE3=Charlie´s Old Highwas 51 Blues
TTITLE4=House Party
TTITLE5=Around The Telephone Blues
TTITLE6=Love Don´t Love Nobody
TTITLE7=Welcome Blues
TTITLE8=Bring It Home To Me
TTITLE9=Wipe Your Teeth
TTITLE10=Happy Hour
TTITLE11=I Can´t Stop It
TTITLE12=Bandstand Boogie
TTITLE13=One Bar Sort
TTITLE14=One Mo´ Peep
TTITLE15=Strollin´ With Bone (Pt.2)
EXTD=YEAR: 2000
EXTT0=
EXTT1=
EXTT2=
EXTT3=
EXTT4=
EXTT5=
EXTT6=
EXTT7=
EXTT8=
EXTT9=
EXTT10=
EXTT11=
EXTT12=
EXTT13=
EXTT14=
EXTT15=
PLAYORDER=
